<svg width="31.346" height="72.346" xmlns="http://www.w3.org/2000/svg">

  <g>
    <title>background</title>
    <rect fill="none" id="canvas_background" height="74.346" width="33.346" y="-1" x="-1"/>
  </g>
  <g>
    <title>Layer 1</title>
    <g id="svg_1">
      <g id="svg_2">
        <path id="svg_3" fill="#010002" d="m16.03302,20.211324c2.703,0 4.902,-2.199 4.902,-4.901c0,-2.417 -1.761,-4.427 -4.067,-4.826l0,-1.119c0.286,-0.173 0.293,-0.551 0.636,-1.041c0.541,-0.774 0.798,-1.53 0.571,-1.688c-0.225,-0.157 -0.847,-0.493 -1.389,0.282c-0.001,0.001 -0.002,0.838 -0.003,0.84c0.019,-0.792 -0.136,-1.406 -0.379,-1.425c-0.236,-0.019 -0.684,1.131 -0.587,0.648s-0.945,-0.558 -1.167,-0.435c-0.24,0.137 -0.058,0.914 0.405,1.737c0.259,0.459 0.183,0.832 0.432,1.051c0.025,0.09 0.053,0.169 0.086,0.232l0,0.876c-2.439,0.28 -4.341,2.354 -4.341,4.868c-0.001,2.702 2.199,4.901 4.901,4.901zm-2.245,-8.007c0.53,-0.236 3.467,1.009 4.083,1.009c0.888,0 0.421,-1.486 1.106,-1.022c1.143,0.771 1.348,1.64 1.348,3.119c0,2.366 -1.926,4.291 -4.292,4.291s-4.292,-1.925 -4.292,-4.291c0.001,-1.75 0.542,-2.439 2.047,-3.106z"/>
        <path id="svg_4" fill="#010002" d="m16.98202,63.999324c0,1.453 1.21,2.629 2.705,2.629c1.492,0 2.702,-1.176 2.702,-2.629l0.065,-8.322l-5.472,0c0,0 0,8.322 0,8.322z"/>
        <path id="svg_5" fill="#010002" d="m9.76002,64.050324c0,1.451 1.063,2.629 2.556,2.629s2.704,-1.178 2.704,-2.629l0,-8.373l-5.26,0l0,8.373z"/>
        <path id="svg_6" fill="#010002" d="m21.22402,21.920324c-0.003,-0.001 -0.005,0 -0.008,0c-0.654,-0.161 -1.564,-0.254 -2.564,-0.306l0,2.817l-2.911,2.911l-2.228,-2.228l0,-3.497c-0.982,0.037 -1.722,0.079 -1.957,0.094c-0.05,0.001 -0.095,-0.008 -0.147,-0.005c-0.454,0.026 -0.875,0.102 -1.278,0.204l-0.004,-0.059c-0.003,0 -0.005,-0.001 -0.009,-0.001c-7.379,0.449 -7.902,11.238 -7.649,18.084c0,0 4.91,3.268 4.929,0c0.019,-3.269 0.019,-3.269 0.141,-4.888c0.081,-1.06 0.258,-4.982 1.213,-7.04c0.05,0.259 0.09,0.422 0.09,0.422c0.002,1.489 0.139,5.751 0.29,10.044l1.167,0.355l0.435,-1.422l0.355,-1.166l0.001,-0.001l0.804,-2.63l1.619,0.496l0,-4.581l5.139,5.14l0,3.591l-4.769,0l-0.467,1.527l1.932,0.591l-0.9,2.936l-1.93,-0.588l-3.368,11.013l0,1.228l5.87,0l1.962,0l5.865,0c0,0 -0.046,-3.015 -0.104,-7.021l1.964,0l-2.089,-8.797c-0.064,-4.871 -0.119,-9.311 -0.117,-10.646c0,0 0.04,-0.165 0.09,-0.424c0.955,2.058 1.133,5.98 1.214,7.04c0.122,1.619 0.479,1.587 0.14,4.886c-0.338,3.3 4.933,0 4.933,0c0.248,-6.841 -0.275,-17.63 -7.654,-18.079zm-3.674,17.399l-2.53,0l0,-0.616l2.53,0l0,0.616zm1.101,-5.686l-5.142,-5.14l0,-2.341l5.142,5.139l0,2.342zm0,-3.38l-0.631,-0.629l0.631,-0.631l0,1.26zm-0.891,-1.408l-1.243,-1.242l2.132,-2.134l0,2.486l0.002,0l-0.891,0.89z"/>
        <polygon id="svg_7" fill="#010002" points="11.416055679321289,38.616384103894234 12.648056983947754,38.205380991101265 12.852054595947266,37.5383735448122 11.620057106018066,37.947377756237984 "/>
        <polygon id="svg_8" fill="#010002" points="13.71705436706543,41.610383585095406 13.972055435180664,40.78038175404072 12.042055130004883,40.19038160145283 12.496055603027344,38.70338208973408 11.264055252075195,39.11438138782978 11.028055191040039,39.88038404285908 9.315055847167969,39.356381967663765 9.060054779052734,40.18838270008564 10.775054931640625,40.71238477528095 5.547049045562744,57.81038434803486 6.123048782348633,59.54038389027119 11.787055969238281,41.0223823338747 "/>
        <polygon id="svg_9" fill="#010002" points="11.773056030273438,37.449372842907906 13.00405502319336,37.040368631482124 13.209054946899414,36.371362283825874 11.976055145263672,36.78236539661884 "/>
        <polygon id="svg_10" fill="#010002" points="13.637054443359375,34.971345499157906 12.625055313110352,34.661340311169624 12.12905502319336,36.284360483288765 13.361055374145508,35.873357370495796 "/>
      </g>
    </g>
    <g id="svg_11"/>
    <g id="svg_12"/>
    <g id="svg_13"/>
    <g id="svg_14"/>
    <g id="svg_15"/>
    <g id="svg_16"/>
    <g id="svg_17"/>
    <g id="svg_18"/>
    <g id="svg_19"/>
    <g id="svg_20"/>
    <g id="svg_21"/>
    <g id="svg_22"/>
    <g id="svg_23"/>
    <g id="svg_24"/>
    <g id="svg_25"/>
  </g>
</svg>